<?xml version="1.0" encoding="utf-8"?>
<!-- Generator: Adobe Illustrator 25.4.1, SVG Export Plug-In . SVG Version: 6.00 Build 0)  -->
<svg version="1.1" id="レイヤー_1" xmlns="http://www.w3.org/2000/svg" xmlns:xlink="http://www.w3.org/1999/xlink" x="0px"
	 y="0px" viewBox="0 0 966.6 830.6" style="enable-background:new 0 0 966.6 830.6;" xml:space="preserve">
<style type="text/css">
	.st0{fill:none;stroke:#FF0000;stroke-width:0.2835;stroke-linecap:round;stroke-miterlimit:11.3386;}
	.st1{fill:none;stroke:#FF0000;stroke-width:1.000000e-03;stroke-miterlimit:10;}
	.st2{fill:none;stroke:#000000;stroke-miterlimit:10;}
</style>
<g id="svgGroup">
	<path id="front_outsideCutPath" vector-effect="non-scaling-stroke" class="st0" d="M0,731.3v15.1h7.1v23H0v23h7.1v23H0v15.1h31
		v-7.1h23v7.1h23v-7.1h23v7.1h23v-7.1h23v7.1h23v-7.1h23v7.1h23v-7.1h23v7.1h23h8v-15.1h-7.1v-23h7.1v-23h-7.1v-23h7.1v-15.1h-31
		v7.1h-23v-7.1h-23v7.1h-23v-7.1h-23v7.1h-23v-7.1h-23v7.1h-23v-7.1H54v7.1H31v-7.1H8H0z"/>
	<path id="left_outsideCutPath" vector-effect="non-scaling-stroke" class="st0" d="M284.9,731.3v15.1h-7.1v23h7.1v23h-7.1v23h7.1
		v15.1h25.7v-7.1h23v7.1h23v-7.1h23v7.1h23v-7.1h23v7.1h23v-7.1h23v7.1h23v-7.1h23v7.1h23v-7.1h23v7.1h23v-7.1h23v7.1h23v-7.1h23
		v7.1h23h2.7v-15.1h7.1v-23h-7.1v-23h7.1v-23h-7.1v-15.1H656v7.1h-23v-7.1h-23v7.1h-23v-7.1h-23v7.1h-23v-7.1h-23v7.1h-23v-7.1h-23
		v7.1h-23v-7.1h-23v7.1h-23v-7.1h-23v7.1h-23v-7.1h-23v7.1h-23v-7.1h-23H284.9z"/>
	<path id="top_outsideCutPath" vector-effect="non-scaling-stroke" class="st0" d="M704.4,426.6v25.7h-7.1v23h7.1v23h-7.1v23h7.1v23
		h-7.1v23h7.1v23h-7.1v23h7.1v23h-7.1v23h7.1v23h-7.1v23h7.1v23h-7.1v23h7.1v23h-7.1v23h7.1v23v2.7h23.9v7.1h23v-7.1h23v7.1h23v-7.1
		h23v7.1h23v-7.1h23v7.1h23v-7.1h23v7.1h23v-7.1h23h0.9v-25.7h7.1v-23h-7.1v-23h7.1v-23h-7.1v-23h7.1v-23h-7.1v-23h7.1v-23h-7.1v-23
		h7.1v-23h-7.1v-23h7.1v-23h-7.1v-23h7.1v-23h-7.1v-23h7.1v-23h-7.1v-23v-2.7h-23.9v-7.1h-23v7.1h-23v-7.1h-23v7.1h-23v-7.1h-23v7.1
		h-23v-7.1h-23v7.1h-23v-7.1h-23v7.1h-23H704.4z"/>
	<path id="back_outsideCutPath" vector-effect="non-scaling-stroke" class="st0" d="M0,623.6v15.1h7.1v23H0v23h7.1v23H0v15.1h31
		v-7.1h23v7.1h23v-7.1h23v7.1h23v-7.1h23v7.1h23v-7.1h23v7.1h23v-7.1h23v7.1h23h8v-15.1h-7.1v-23h7.1v-23h-7.1v-23h7.1v-15.1h-31
		v7.1h-23v-7.1h-23v7.1h-23v-7.1h-23v7.1h-23v-7.1h-23v7.1h-23v-7.1H54v7.1H31v-7.1H8H0z"/>
	<path id="right_outsideCutPath" vector-effect="non-scaling-stroke" class="st0" d="M284.9,623.6v15.1h-7.1v23h7.1v23h-7.1v23h7.1
		v15.1h25.7v-7.1h23v7.1h23v-7.1h23v7.1h23v-7.1h23v7.1h23v-7.1h23v7.1h23v-7.1h23v7.1h23v-7.1h23v7.1h23v-7.1h23v7.1h23v-7.1h23
		v7.1h23h2.7v-15.1h7.1v-23h-7.1v-23h7.1v-23h-7.1v-15.1H656v7.1h-23v-7.1h-23v7.1h-23v-7.1h-23v7.1h-23v-7.1h-23v7.1h-23v-7.1h-23
		v7.1h-23v-7.1h-23v7.1h-23v-7.1h-23v7.1h-23v-7.1h-23v7.1h-23v-7.1h-23H284.9z"/>
	<path id="bottom_outsideCutPath" vector-effect="non-scaling-stroke" class="st0" d="M704.4,7.1v25.7h-7.1v23h7.1v23h-7.1v23h7.1
		v23h-7.1v23h7.1v23h-7.1v23h7.1v23h-7.1v23h7.1v23h-7.1v23h7.1v23h-7.1v23h7.1v23h-7.1v23h7.1v23v2.7h23.9v7.1h23v-7.1h23v7.1h23
		v-7.1h23v7.1h23v-7.1h23v7.1h23v-7.1h23v7.1h23v-7.1h23h0.9v-25.7h7.1v-23h-7.1v-23h7.1v-23h-7.1v-23h7.1v-23h-7.1v-23h7.1v-23
		h-7.1v-23h7.1v-23h-7.1v-23h7.1v-23h-7.1v-23h7.1v-23h-7.1v-23h7.1v-23h-7.1v-23V7.1h-23.9V0h-23v7.1h-23V0h-23v7.1h-23V0h-23v7.1
		h-23V0h-23v7.1h-23V0h-23v7.1h-23H704.4z"/>
</g>
<g>
	<g>
		<path d="M130,249.8c0-3.8-0.3-7.1,0.1-10.4c0.7-5.9,1.6-11.7,2.7-17.6c2.5-13.5,5.1-27,7.8-40.4c1.8-9.1,6.7-16.5,12.8-23.1
			c5.6-6,11.1-12,17.3-17.3c6.1-5.2,8.7-11.7,9.4-19.3c0.9-10.4,2-20.7,2.8-31.1c0.9-10.3,8.4-17.4,18.9-17.4c1.4,0,2.8-0.1,4.3,0
			c4.1,0,5.1,1.2,4.4,5.2c-0.8,4.5-1.8,8.9-2.7,13.4c-3.8,19.4-7.5,38.9-11.6,58.2c-0.8,3.9-0.5,6.9,1.5,10.1
			c4.3,7,4.7,14.9,4.8,22.8c0.5,29,1.1,58.1,1.1,87.1c0,18.7-1,37.3-1.6,56c-0.2,6.2-2.9,11.5-5.5,16.9c-0.7,1.4-1.1,3.3-0.8,4.8
			c2.1,10.9,4.6,21.7,6.8,32.5c2.8,13.8,5.4,27.7,8.1,41.5c0.8,4.4-0.1,5.6-4.6,5.5c-3.2-0.1-6.5-0.1-9.6-0.8
			c-7.7-1.8-12.7-8.1-13.4-16.1c-0.7-8.9-1.4-17.8-2.3-26.6c-0.4-4.1-1.2-8.2-1.9-12.3c-0.6-3.2-2.1-6-4.6-8.3
			c-5.1-4.8-10-9.9-15.1-14.7c-10.7-10.2-18.2-22.2-20.5-37.1c-1.8-11.1-3.1-22.4-6-33.2C129.9,268.3,130.3,258.8,130,249.8z
			 M193.3,261.7c-0.7,3.3-3.3,4.8-5.9,6c-10.3,4.5-19.7-0.8-21.8-12.2c-0.2,9.1,4.7,14.6,13.3,15.2c9.2,0.6,14.8-3.2,15.8-11
			C194.2,260.4,193.7,261.1,193.3,261.7c0.1-0.8,0.2-1.6,0.5-2.4c1.6-5.8,1.4-11.7,0.8-17.6c0-1,0.2-2.1-0.1-3
			c-1.5-5.6-5.4-8.6-11-9.1c-10.3-0.9-17.4,2.5-17.8,14.9c0.8-4.8,2.2-9.3,7-11.6c5.4-2.6,10.8-2.5,16.1,0.3
			c1.4,0.7,2.3,2.3,3.4,3.5c-0.5-0.3-1.1-0.6-2.1-1.1c5.9,9.7,6.1,19.1,0.7,28.5C191.6,263.4,192.4,262.5,193.3,261.7z M185.9,241.2
			c-0.4,4.1-3,6.7-6.4,9.2c5.3,2.3,6,7.5,8.3,11.6c3.9-2.5,5.4-6.9,4.7-14.5c-0.3-3.6-1.1-7-4.6-9.1
			C187.1,239.4,186.5,240.3,185.9,241.2c0.5-1.7,1.1-3.4,1.7-5.1c-0.2-0.1-0.4-0.2-0.7-0.3c-1.2,2.5-2.3,4.9-3.5,7.4
			c0.2,0.1,0.4,0.2,0.6,0.3C184.6,242.7,185.2,242,185.9,241.2z M169.3,241.8c1.1-1.8,2.2-3.7,3.4-5.5c-5.8,4.1-5.8,10.2-5.5,16.3
			c0.3,4.9,1.3,9.6,6.2,12c-1.4-2.1-2.8-4.3-4.2-6.4c0.5,0.5,1,1,1.5,1.6c2.5,3.3,7.5,4.8,11.7,3.5c-1.2-5.4-2.9-10.5-8.5-13.2
			c5.7-4.2,8.2-8.4,8.3-13.8C176.8,235.8,172.5,237.6,169.3,241.8z M187.8,345.4c-5.3,4.4-9.3,2.2-13.1-1.3
			c-5.1-4.7-10.4-9.2-15.1-14.3c-2.3-2.5-4.2-5.8-5-9c-2.3-8.5-4.1-17.1-5.6-25.8c-3.7-20.9-6.5-41.8-3.9-63
			c2.1-16.9,4.7-33.6,8.7-50.1c1-4.3,2.5-8.4,5.8-11.5c5-4.7,10-9.3,14.9-14c3.7-3.5,7.7-5.5,12.6-2.3c0.1,0.1,0.3-0.1,0.4-0.1
			c0.2-2,0.6-3.9,0.6-5.9c-0.1-2.9-0.3-5.8-0.8-8.6c-0.6-4-2-7.9-2.2-11.9c-0.3-6.7,0.1-13.5,0.1-20.2c0-2.8-0.3-5.7-0.5-8.5
			c-0.7,0.4-0.9,0.8-1,1.2c-0.6,6.5-1.4,13-1.9,19.5c-0.6,8.4-2.8,15.8-9.5,21.7c-6.4,5.7-12.2,11.9-18.1,18.2
			c-6,6.5-10.4,13.9-12.5,22.6c-3.9,15.8-6.6,31.7-8.5,47.8c-1.7,14.5-1.5,29,0.2,43.4c2,16.5,4.9,32.8,9.3,48.8
			c1.7,6.1,4.7,11.5,8.8,16c6.8,7.5,14,14.7,21.5,21.6c4.5,4.2,7,9.1,7.6,15.1c0.9,8,1.8,16,2.7,24c0.1,0.9,0.4,1.8,0.6,2.7
			c0.3,0,0.5-0.1,0.8-0.1c0-5,0-10.1,0-15.1c0.1-5.9,0.1-11.7,0.4-17.6c0.1-2,0.4-4.1,1.3-5.8C189.4,357.4,188.5,351.8,187.8,345.4z
			 M206.9,425.5c-5.2-27.3-10.4-54.3-15.5-81.3c-0.3,0-0.6-0.1-0.9-0.1c-0.3,0.7-0.8,1.3-0.8,2c0,2.8,0.2,5.7,0.3,8.5
			c0,2,0.5,4.4-0.4,5.9c-2.9,4.6-2.9,9.5-3,14.5c-0.1,8.5,0.1,17.1,0,25.6c0,0.8-0.1,2.2-0.5,2.3c-2.4,0.8-1.9,2.7-1.8,4.2
			c0.3,5.2,1,10.3,5.2,13.9C194.3,425.2,200.1,425.6,206.9,425.5z M190.9,156.8c0.6-1.1,0.9-1.4,1-1.7c1.1-5.7,2.2-11.3,3.2-17
			c1.4-8.2,2.4-16.5,4-24.7c2.1-10.9,4.6-21.7,7-32.5c1.4-6.2,1.4-6.2-5-5.9c-9.5,0.5-15.3,5.6-16.7,15c-0.4,2.8-1,5.8,1.8,8.1
			c0.7,0.6,0.9,2.1,0.9,3.1c-0.1,6.5-0.2,13.1-0.4,19.6c-0.2,5.7-0.4,11.3,1.6,16.9c0.9,2.4,1.4,5.1,1.6,7.7
			c0.2,2.8-0.2,5.7-0.2,8.5C189.7,154.7,190.3,155.5,190.9,156.8z M196.3,338.3c3.1-4.6,3.9-9.8,4.1-15.1
			c0.6-20.1,1.5-40.2,1.6-60.3c0.1-24.7-0.6-49.3-1-74c-0.1-5.9-0.7-11.7-1.1-17.6c-0.2-3.3-3.3-10.4-5.2-12.4
			c2.9,5.4,4.6,11.3,4.8,17.4c0.7,24.9,1.5,49.9,1.6,74.8c0.1,19.2-0.5,38.3-1.2,57.5C199.6,318.6,200.7,328.8,196.3,338.3z
			 M195.5,141.5c0.2,0,0.3,0.1,0.5,0.1c4.4-22,8.8-43.9,13.3-65.9c-0.4-0.1-0.9-0.2-1.3-0.3C203.8,97.5,199.6,119.5,195.5,141.5z
			 M194.8,352.8c-0.2,0-0.3,0.1-0.5,0.1c4.6,23.9,9.2,47.8,13.8,71.7c0.3-0.1,0.7-0.1,1-0.2C204.4,400.6,199.6,376.7,194.8,352.8z
			 M188,234.5c-4.3-3.1-9.6-3.1-11.2-1C180.3,233.9,184.2,234.2,188,234.5z M186.7,264.5c0.4-0.2,0.7-0.3,1.1-0.5
			c-1.4-3-2.9-6-4.3-8.9c-0.2,0.1-0.4,0.2-0.6,0.3C184.1,258.4,185.4,261.5,186.7,264.5z"/>
		<path d="M168.8,256.8c-1.9-5.1-1.8-10.1,0.6-15C169.1,246.8,169,251.8,168.8,256.8z"/>
	</g>
	<path class="st1" d="M125.6,243.1c0-1.6,0.1-3,0.2-4.3c0.6-5.4,1.5-11.1,2.8-17.8c2.5-13.7,5.2-27.3,7.8-40.5
		c1.7-8.9,6.2-16.9,13.9-25.2l1.7-1.8c5-5.4,10.2-10.9,15.9-15.8c4.8-4.1,7.3-9.2,7.9-16.4c0.3-3.8,0.7-7.5,1-11.3
		c0.6-6.5,1.2-13.2,1.8-19.8c1-12.5,10.6-21.3,23.2-21.3c0.6,0,1.2,0,1.9,0c0.8,0,1.6,0,2.4,0c7.7,0,8.9,4.7,8.9,7.5
		c0,0.8-0.1,1.7-0.3,2.8c-0.5,2.8-1.1,5.6-1.7,8.4c-0.4,1.7-0.7,3.4-1,5.1c-1,5.3-2.1,10.6-3.1,15.9c-2.7,13.9-5.5,28.3-8.5,42.4
		c-0.2,1-0.3,1.9-0.3,2.7c0,1.5,0.4,2.8,1.3,4.3c4.8,7.8,5.3,16.3,5.4,25c0.1,5.9,0.2,11.9,0.3,17.8c0.4,22.7,0.8,46.1,0.8,69.2v0.2
		c0,13.1-0.5,26.5-1,39.3c-0.2,5.5-0.4,11.2-0.6,16.8c-0.2,7.2-3.3,13.3-6,18.7c-0.3,0.5-0.5,1.3-0.5,1.8c0,0.1,0,0.2,0,0.2
		c1.1,5.8,2.4,11.6,3.6,17.3c1.1,5,2.2,10.1,3.2,15.2c2.3,11.5,4.5,23.2,6.7,34.5l1.4,7.1c0.2,1.3,0.4,2.3,0.4,3.2
		c0,2.2-0.7,4-2,5.3c-2,2-4.8,2.2-7.2,2.1l-1.1,0c-3-0.1-6.2-0.1-9.4-0.9c-9.3-2.2-15.9-10-16.7-20c-0.2-2.4-0.4-4.7-0.6-7.1
		c-0.5-6.4-1-13-1.7-19.5c-0.4-3.8-1.1-7.7-1.8-11.5l-0.1-0.5c-0.4-2.3-1.5-4.2-3.3-6c-2.7-2.6-5.4-5.3-8-7.9
		c-2.3-2.3-4.7-4.6-7-6.9c-12.3-11.8-19.5-24.7-21.8-39.6c-0.4-2.4-0.7-4.7-1.1-7.1c-1.3-8.5-2.6-17.4-4.8-25.7
		c-2.1-8-2.3-15.7-2.5-23.2c0-2-0.1-3.9-0.2-5.7c0-0.1,0-0.1,0-0.2c0-1.2,0-2.3-0.1-3.4C125.6,245.3,125.6,244.2,125.6,243.1z"/>
	<path class="st2" d="M210.4,421.6c-2.7-13.8-5.3-27.7-8.1-41.5c-2.2-10.9-4.6-21.7-6.8-32.5c-0.3-1.5,0.1-3.4,0.8-4.8
		c2.7-5.4,5.4-10.7,5.5-16.9c0.6-18.7,1.6-37.3,1.6-56c0-29-0.7-58.1-1.1-87.1c-0.1-7.9-0.5-15.8-4.8-22.8c-2-3.2-2.4-6.2-1.5-10.1
		c4.2-19.3,7.8-38.8,11.6-58.2c0.9-4.5,1.9-8.9,2.7-13.4c0.7-4-0.3-5.2-4.4-5.2c-1.4,0-2.8,0-4.3,0c-10.5,0-18,7-18.9,17.4
		c-0.9,10.4-1.9,20.8-2.8,31.1c-0.7,7.6-3.3,14.1-9.4,19.3c-6.2,5.3-11.7,11.4-17.3,17.3c-6.2,6.6-11,14-12.8,23.1
		c-2.6,13.5-5.3,26.9-7.8,40.4c-1.1,5.8-2,11.7-2.7,17.6c-0.4,3.3-0.1,6.6-0.1,10.4c0.4,9.1-0.1,18.5,2.5,28
		c2.9,10.8,4.2,22.1,6,33.2c2.3,14.9,9.8,26.9,20.5,37.1c5.1,4.8,10,9.9,15.1,14.7c2.5,2.3,4,5.1,4.6,8.3c0.8,4.1,1.5,8.2,1.9,12.3
		c0.9,8.9,1.5,17.7,2.3,26.6c0.7,8,5.7,14.4,13.4,16.1c3.1,0.7,6.4,0.7,9.6,0.8C210.2,427.2,211.2,426,210.4,421.6z"/>
</g>
<g>
	<path d="M167.6,765.2c-2.5-5.7-5.7-11.2-12.6-12.7c0,0-0.1,0-0.1,0c0,0,0,0,0,0c0,0-0.1,0-0.1,0c0,0,0,0,0,0
		c-0.1-0.1-0.2-0.2-0.4-0.3c-0.2,0.1-0.3,0.1-0.5,0.1c0.3,0.1,0.6,0.1,0.9,0.2c1.8,1.8,3.6,3.6,5.3,5.4
		c-20.4-11.6-40.6-11.1-61.6,1.5c1.2-2.2,1.7-3.4,2.3-4.5c-2.6,2.4-6,4.4-7.5,7.4c-6,11.3-6.2,23.1-0.7,34.7
		c5,10.5,14.8,13.4,25.1,15.2c-0.3,0-0.5,0-0.8-0.1c0.4,0.1,0.7,0.3,1,0.4h24c0.2-0.1,0.5-0.2,0.7-0.3c-0.5,0-0.9,0-1.4,0
		C165.9,807.7,177.4,787.4,167.6,765.2z M93.9,788c-4.7-3.5-4.7-15,2.1-24.3C95.3,772,94.6,780.3,93.9,788z M160.8,766.6l-19.8,8.3
		c-0.2-0.4-0.4-0.8-0.6-1.2c6.4-3.1,12.9-6.3,19.3-9.4C160.1,765.1,160.4,765.8,160.8,766.6z M123.8,754c16.4-1.4,26,1.8,31.4,10.2
		c-8.8,5.1-20.2,6.5-25,18c-5.4-7.3-10.9-13.1-19.8-13.9c0,0,0,0,0.1,0c-2-1.4-3.9-2.7-6.4-4.4C108.6,756.5,116.1,754.6,123.8,754z
		 M99.3,764.7c3.7,1.2,7.5,2.5,11.2,3.7c1.6,1.3,3.3,2.6,4.9,3.9c-0.2,0.4-0.5,0.9-0.7,1.3c-5.3-2.5-10.7-5-16-7.5
		C98.9,765.6,99.1,765.1,99.3,764.7z M135,808.6c-13.1,0.7-26.3,0.7-35.1-11.8l11.9,7.3c-9.1-7-13-16.2-11.8-27.7
		c11.8,0.3,20.8,5.6,29.9,17.9c5.8-12.2,16.8-15.9,28.5-18.4c2.8,8.9-0.6,19.8-7.6,25.2c-1.3,1-2.4,2.1-3.5,3.2
		c4.6-3.1,9.3-6.1,13.8-9.1C155.7,805.9,145.6,808.1,135,808.6z"/>
</g>
</svg>
